<?xml version="1.0" encoding="UTF-8" standalone="no"?>
<!-- Created with Inkscape (http://www.inkscape.org/) -->

<svg
   width="1200"
   height="630"
   viewBox="0 0 317.49999 166.6875"
   version="1.1"
   id="svg5"
   xml:space="preserve"
   inkscape:version="1.2.1 (9c6d41e4, 2022-07-14)"
   sodipodi:docname="share_image2.svg"
   inkscape:export-filename="share_image.png"
   inkscape:export-xdpi="96"
   inkscape:export-ydpi="96"
   xmlns:inkscape="http://www.inkscape.org/namespaces/inkscape"
   xmlns:sodipodi="http://sodipodi.sourceforge.net/DTD/sodipodi-0.dtd"
   xmlns="http://www.w3.org/2000/svg"
   xmlns:svg="http://www.w3.org/2000/svg"><sodipodi:namedview
     id="namedview7"
     pagecolor="#cccccc"
     bordercolor="#000000"
     borderopacity="0.25"
     inkscape:showpageshadow="2"
     inkscape:pageopacity="0"
     inkscape:pagecheckerboard="0"
     inkscape:deskcolor="#d1d1d1"
     inkscape:document-units="mm"
     showgrid="false"
     inkscape:zoom="0.70710678"
     inkscape:cx="561.44279"
     inkscape:cy="268.70058"
     inkscape:window-width="1375"
     inkscape:window-height="730"
     inkscape:window-x="24"
     inkscape:window-y="25"
     inkscape:window-maximized="0"
     inkscape:current-layer="layer2" /><defs
     id="defs2" /><g
     inkscape:label="Layer 1"
     inkscape:groupmode="layer"
     id="layer1" /><g
     inkscape:groupmode="layer"
     id="layer2"
     inkscape:label="Text"><g
       id="g2319"
       transform="translate(-1.1225325,1.4967094)"><path
         style="fill:#000000;stroke-width:0.241769"
         d="m 154.75883,73.327919 c 12.2306,-1.307872 22.08041,-10.101411 24.90789,-22.236815 1.59134,-6.82997 0.95053,-13.32378 -1.94485,-19.708703 -3.63271,-8.010889 -10.82201,-13.975351 -19.3477,-16.051441 -2.91779,-0.710513 -9.89457,-0.654689 -12.5223,0.100196 -2.89307,0.831112 -4.00766,1.261489 -6.07712,2.346563 -9.63749,5.053203 -15.65891,15.149364 -15.65573,26.250084 0.004,14.845822 10.66162,27.37575 24.83772,29.201855 3.1073,0.400267 2.99556,0.398375 5.80209,0.09826 z"
         id="path2284" /><g
         id="g2373"><g
           id="g2408"><path
             style="fill:#000000;stroke-width:0.241769"
             d="m 148.72131,79.127856 c -8.64016,-1.182227 -16.49529,-5.448806 -21.78521,-11.832818 -7.5389,-9.098143 -10.17478,-20.645994 -7.38763,-32.365396 0.49225,-2.06978 2.07327,-6.142781 3.21327,-8.277939 5.93622,-11.118251 17.31426,-18.1020503 29.4911,-18.1015391 7.07229,2.969e-4 13.44175,2.0442191 19.33659,6.2049911 7.81363,5.515113 12.82342,13.8999 14.46303,24.206499 0.37301,2.344765 0.15746,9.571881 -0.35893,12.034235 -2.75467,13.135375 -11.6752,23.15713 -23.95193,26.908756 -3.75347,1.147014 -9.57804,1.694213 -13.02029,1.223211 z"
             id="path2282" /><path
             style="fill:#000000;stroke-width:0.241769"
             d="m 167.52846,85.342186 c -2.55748,-5.668097 -2.92919,-6.563453 -2.80957,-6.767542 0.0629,-0.10735 0.62109,-0.395783 1.2404,-0.640964 0.6193,-0.245181 1.8385,-0.820365 2.70932,-1.278186 0.87082,-0.457824 1.69312,-0.832404 1.82733,-0.832404 0.1342,0 0.54862,0.698265 0.92092,1.5517 0.37229,0.853435 1.32838,2.997937 2.12464,4.765559 0.79626,1.76762 1.41746,3.375027 1.38046,3.572013 -0.0376,0.199867 -0.60078,0.501962 -1.27439,0.68353 -1.14146,0.307679 -2.02838,0.748377 -3.79966,1.888012 l -0.76891,0.494717 z"
             id="path2280" /><path
             style="fill:#000000;stroke-width:0.241769"
             d="m 195.26309,151.78702 c -0.51026,-0.32806 -0.97008,-0.95138 -1.32711,-1.79904 -0.30047,-0.71338 -0.87614,-2.05398 -1.27927,-2.97911 -0.40312,-0.92513 -0.73295,-1.72402 -0.73295,-1.77532 0,-0.0513 -0.43076,-1.08193 -0.95725,-2.2903 -0.52649,-1.20837 -1.09776,-2.5322 -1.26949,-2.94185 -0.17172,-0.40965 -0.58853,-1.39053 -0.92623,-2.17974 -0.3377,-0.7892 -0.614,-1.47637 -0.614,-1.52704 0,-0.0507 -0.42887,-1.08079 -0.95303,-2.28916 -1.99844,-4.60697 -2.90133,-6.72107 -3.7635,-8.81212 -0.41413,-1.00439 -1.01697,-2.44063 -1.33966,-3.19166 -3.81189,-8.8719 -12.77867,-30.375037 -12.77867,-30.644404 0,-1.267627 3.47158,-3.514991 5.82867,-3.773251 1.15825,-0.126909 1.41259,-0.07741 1.77383,0.345173 0.81019,0.947773 27.71286,58.152422 27.71286,58.927392 0,3.34422 -6.51315,6.76986 -9.3742,4.93043 z"
             id="path2219" /></g></g></g><ellipse
       style="fill:#ffffff;fill-opacity:1;stroke-width:0.334417"
       id="path2462"
       cx="151.16763"
       cy="45.275455"
       rx="29.185831"
       ry="29.934187" /><text
       xml:space="preserve"
       style="font-size:10.8322px;font-family:'varino bold';-inkscape-font-specification:'varino bold, ';fill:#000000;stroke-width:0.253881"
       x="173.71022"
       y="36.00983"
       id="text299"
       transform="scale(0.87641305,1.1410145)"><tspan
         sodipodi:role="line"
         id="tspan297"
         style="text-align:center;text-anchor:middle;stroke-width:0.253881"
         x="173.71022"
         y="36.00983">INSPECT</tspan><tspan
         sodipodi:role="line"
         style="text-align:center;text-anchor:middle;stroke-width:0.253881"
         x="173.71022"
         y="49.550079"
         id="tspan301">Insight</tspan></text></g></svg>
